<svg version="1.1" id="Artwork" xmlns="http://www.w3.org/2000/svg" xmlns:xlink="http://www.w3.org/1999/xlink" x="0px" y="0px"
	 viewBox="0 0 532.6 534.8" style="enable-background:new 0 0 532.6 534.8;" xml:space="preserve">
<style type="text/css">
	.st0{fill:#FFFFFF;}
</style>
<g>
	<path class="st0" d="M187.6,444.9c-0.7,2.4-2.1,6.4-3,8.1c-1.5,0.4-5.9,1.4-9.8,1.4c-13.2,0-19-9.1-19-17.5
		c0-11.1,8.6-18.5,20.4-18.5c4.3,0,7.9,1.2,9.4,1.4c0.4,3,0.7,5.1,1.1,8l-1.6,0.4c-1.4-5.6-4.6-7.9-10.3-7.9
		c-8.9,0-13.6,7.5-13.6,15.5c0,9.9,5.8,16.7,13.9,16.7c5.4,0,8.3-2.9,10.9-8.2L187.6,444.9z"/>
	<path class="st0" d="M210.5,449.1c-3.3,4.2-7,5.1-8.6,5.1c-6.5,0-10.3-5.3-10.3-11.3c0-3.7,1.3-6.9,3.5-9.3c2.2-2.4,5-3.9,7.8-3.9
		c4.4,0,7.9,3.9,7.9,8.1c0,1.1-0.3,1.5-1.2,1.7c-0.9,0.2-7.5,0.7-13.8,0.9c0.1,7.2,4.2,10.2,7.9,10.2c2.1,0,4.1-0.8,6-2.6
		L210.5,449.1z M195.9,438.3c3,0,5.9-0.1,9-0.2c1,0,1.3-0.3,1.3-1.1c0.1-2.8-1.7-5.3-4.7-5.3C199.1,431.8,196.7,434,195.9,438.3z"/>
	<path class="st0" d="M228.7,453.6v-1.4c3.1-0.3,3.5-0.7,3.5-4.4V439c0-3.7-1.3-6-4.8-6c-2.1,0-4.2,1.3-5.8,2.7v12.5
		c0,3.6,0.3,3.8,3.4,4.1v1.4h-11.5v-1.4c3.6-0.4,3.9-0.6,3.9-4.1v-11c0-3.4-0.3-3.5-3.2-4.1v-1.2c2.5-0.5,5-1.1,7.4-2.2v4.2
		c1.1-0.8,2.2-1.6,3.6-2.5c1.5-1,2.9-1.6,4.4-1.6c4.2,0,6.8,2.9,6.8,8.1v10.2c0,3.6,0.3,3.8,3.3,4.1v1.4H228.7z"/>
	<path class="st0" d="M252.2,453.6c-0.9,0.5-1.7,0.7-2.2,0.7c-3.3,0-5.2-2.1-5.2-6.3v-15.4h-3.7l-0.2-0.5l1.4-1.5h2.4v-3.9l3.4-3.5
		l0.7,0.1v7.3h6c0.5,0.5,0.3,1.7-0.3,2.1H249v13.6c0,4.3,1.7,5.1,3.1,5.1c1.3,0,2.5-0.5,3.3-0.9l0.5,1.4L252.2,453.6z"/>
	<path class="st0" d="M276.8,449.1c-3.3,4.2-7,5.1-8.6,5.1c-6.5,0-10.3-5.3-10.3-11.3c0-3.7,1.3-6.9,3.5-9.3c2.2-2.4,5-3.9,7.8-3.9
		c4.4,0,7.9,3.9,7.9,8.1c0,1.1-0.3,1.5-1.2,1.7c-0.9,0.2-7.5,0.7-13.8,0.9c0.1,7.2,4.2,10.2,7.9,10.2c2.1,0,4.1-0.8,6-2.6
		L276.8,449.1z M262.3,438.3c3,0,5.9-0.1,9-0.2c1,0,1.3-0.3,1.3-1.1c0.1-2.8-1.7-5.3-4.7-5.3C265.4,431.8,263.1,434,262.3,438.3z"/>
	<path class="st0" d="M288.1,435.5c1.6-2.6,3.9-5.6,6.4-5.6c1.8,0,3.1,1.4,3.1,2.6c0,1.1-0.7,2.1-1.7,2.6c-0.6,0.3-1.1,0.2-1.4-0.1
		c-0.7-0.8-1.4-1.1-2.2-1.1c-1.4,0-3.1,1.6-4.2,4.6v9.7c0,3.5,0.3,3.8,4.3,4.1v1.4h-12.2v-1.4c3.3-0.3,3.7-0.6,3.7-4.1v-11
		c0-3.5-0.3-3.7-3.3-4.1v-1.2c2.6-0.4,4.9-1.1,7.5-2.2v5.8H288.1z"/>
	<path class="st0" d="M315.4,430.5v-1.2c0-1.6,0.2-3.2,0.6-4.3s1.2-3.8,4.1-6.2c1.9-1.6,3.8-2.6,5.8-2.9c1.8,0.1,3.3,0.8,4.2,1.8
		c0.5,0.6,0.5,1.3,0.3,1.9c-0.2,0.4-0.5,0.8-1,1.3c-0.5,0.4-1,0.4-1.4-0.2c-1.1-1-2.5-2-4.3-2c-1.4,0-2.2,0.6-2.8,1.6
		c-0.7,1-1.3,3.6-1.2,8.1v2.1h6.3c0.3,0.5,0.1,1.7-0.5,2.1h-5.7v15.3c0,3.9,0.4,4.1,4.6,4.5v1.3h-12.5v-1.4c3.4-0.3,3.8-0.6,3.8-4.1
		v-15.6h-3.7l-0.2-0.5l1.4-1.5H315.4z"/>
	<path class="st0" d="M350.4,441.7c0,8.5-6.3,12.6-11.5,12.6c-7.3,0-11.6-5.8-11.6-11.7c0-8.7,6.8-12.7,11.6-12.7
		C345.4,429.8,350.4,435.1,350.4,441.7z M332.2,440.9c0,6.7,2.9,11.7,7.3,11.7c3.3,0,6-2.4,6-9.7c0-6.2-2.5-11.2-7.1-11.2
		C335.1,431.6,332.2,434.9,332.2,440.9z"/>
	<path class="st0" d="M361.4,435.5c1.6-2.6,3.9-5.6,6.4-5.6c1.8,0,3.1,1.4,3.1,2.6c0,1.1-0.7,2.1-1.7,2.6c-0.6,0.3-1.1,0.2-1.4-0.1
		c-0.7-0.8-1.4-1.1-2.2-1.1c-1.4,0-3.1,1.6-4.2,4.6v9.7c0,3.5,0.3,3.8,4.3,4.1v1.4h-12.2v-1.4c3.3-0.3,3.7-0.6,3.7-4.1v-11
		c0-3.5-0.3-3.7-3.3-4.1v-1.2c2.6-0.4,4.9-1.1,7.5-2.2v5.8H361.4z"/>
	<path class="st0" d="M33.8,493.1c5.2,0.8,9.4,3.1,9.4,8.4c0,3.6-2,6.3-5.1,8c-2.7,1.5-6.2,2.1-10.4,2.1H16v-1.5
		c4.6-0.3,4.9-0.6,4.9-5.1v-21.4c0-4.4-0.2-4.7-4.5-5v-1.5H30c4,0,6.3,0.6,7.9,1.8c1.9,1.3,3,3.6,3,6c0,5-4.2,7.1-7.2,7.9V493.1z
		 M27.8,492.4c5.8,0,8.3-2.3,8.3-6.8c0-3.6-2-6.8-7-6.8c-1.3,0-2.5,0.2-3,0.5c-0.5,0.3-0.7,0.9-0.7,2.7v10.4H27.8z M25.3,505
		c0,3.8,1,4.8,4.4,4.8c4.3-0.1,8.2-2.3,8.2-7.8c0-5.5-3.7-7.8-10.2-7.8h-2.4V505z"/>
	<path class="st0" d="M46.5,511.6v-1.4c3.3-0.3,3.7-0.6,3.7-4.2v-10.9c0-3.3-0.2-3.5-3.3-4v-1.3c2.7-0.4,5.2-1.1,7.5-2.1V506
		c0,3.6,0.4,3.9,3.8,4.2v1.4H46.5z M49.3,480.5c0-1.6,1.3-2.8,2.7-2.8c1.5,0,2.6,1.2,2.6,2.8c0,1.4-1.2,2.7-2.7,2.7
		C50.6,483.2,49.3,482,49.3,480.5z"/>
	<path class="st0" d="M84.1,499.7c0,8.5-6.3,12.6-11.5,12.6c-7.3,0-11.6-5.8-11.6-11.7c0-8.7,6.8-12.7,11.6-12.7
		C79.2,487.8,84.1,493.1,84.1,499.7z M65.9,498.9c0,6.7,2.9,11.7,7.3,11.7c3.3,0,6-2.4,6-9.7c0-6.2-2.5-11.2-7.1-11.2
		C68.8,489.6,65.9,492.9,65.9,498.9z"/>
	<path class="st0" d="M116.3,511.6v-1.4c3.1-0.3,3.7-0.5,3.7-4.3v-8.9c0-3.8-1.3-6.1-4.7-6.1c-1.9,0-3.9,1.1-5.9,2.8
		c0.1,0.6,0.2,1.2,0.2,2.2v10.3c0,3.3,0.5,3.7,3.4,4v1.4h-11.3v-1.4c3.3-0.3,3.8-0.6,3.8-4.1v-9.1c0-3.9-1.4-6.1-4.6-6.1
		c-2.1,0-4.2,1.4-5.8,2.8v12.5c0,3.4,0.4,3.8,3,4.1v1.4H86.8v-1.4c3.5-0.3,4-0.6,4-4.1v-11c0-3.4-0.2-3.7-3.2-4.1v-1.2
		c2.3-0.4,5-1.1,7.4-2.2v4.3c1.1-0.7,2.3-1.7,3.9-2.7c1.4-0.8,2.6-1.4,4.3-1.4c2.5,0,4.8,1.6,5.9,4.3c1.5-1.2,3.1-2.2,4.4-3
		c1.1-0.7,2.5-1.4,4-1.4c4.1,0,6.7,2.9,6.7,8.1v10.2c0,3.5,0.4,3.8,3.4,4.1v1.4H116.3z"/>
	<path class="st0" d="M149.5,507.1c-3.3,4.2-7,5.1-8.6,5.1c-6.5,0-10.3-5.3-10.3-11.3c0-3.7,1.3-6.9,3.5-9.3c2.2-2.4,5-3.9,7.8-3.9
		c4.4,0,7.9,3.9,7.9,8.1c0,1.1-0.3,1.5-1.2,1.7c-0.9,0.2-7.5,0.7-13.8,0.9c0.1,7.2,4.2,10.2,7.9,10.2c2.1,0,4.1-0.8,6-2.6
		L149.5,507.1z M135,496.3c3,0,5.9-0.1,9-0.2c1,0,1.3-0.3,1.3-1.1c0.1-2.8-1.7-5.3-4.7-5.3C138.2,489.8,135.8,492,135,496.3z"/>
	<path class="st0" d="M178.8,510.3c-1.2,0.2-5.1,0.9-8.2,2v-3.4l-3.2,1.9c-2.1,1.2-3.5,1.5-4.1,1.5c-4.2,0-9.8-3.9-9.8-11.3
		c0-7.4,6.5-13.1,13.7-13.1c0.7,0,2.3,0.2,3.5,0.6v-7.5c0-3.5-0.3-3.7-4.1-3.9v-1.3c2.8-0.4,6.3-1.2,8.3-1.9v31.6
		c0,2.8,0.4,3,2.3,3.2l1.7,0.2V510.3z M170.6,492.5c-1.3-1.9-3.4-2.7-5.5-2.7c-2.4,0-6.9,2.1-6.9,9.8c0,6.3,3.9,9.4,7.3,9.4
		c1.9,0,3.8-0.8,5.1-1.8V492.5z"/>
	<path class="st0" d="M181.1,511.6v-1.4c3.3-0.3,3.7-0.6,3.7-4.2v-10.9c0-3.3-0.2-3.5-3.3-4v-1.3c2.7-0.4,5.2-1.1,7.5-2.1V506
		c0,3.6,0.4,3.9,3.8,4.2v1.4H181.1z M183.9,480.5c0-1.6,1.3-2.8,2.7-2.8c1.5,0,2.6,1.2,2.6,2.8c0,1.4-1.2,2.7-2.7,2.7
		C185.2,483.2,183.9,482,183.9,480.5z"/>
	<path class="st0" d="M215.2,506.9c-2.3,3.1-5.9,5.4-9,5.4c-6.7,0-10.6-5.4-10.6-11.1c0-4.1,1.7-7.6,5.3-10.4c2.8-2.1,5.9-3,8-3
		c2.1,0,3.9,0.7,4.7,1.4c0.7,0.6,0.8,1.1,0.8,1.6c0,1.1-1.2,2.3-1.7,2.3c-0.3,0-0.5-0.2-1-0.6c-1.6-1.5-3.4-2.2-5.3-2.2
		c-3.5,0-6.6,2.9-6.6,8.5c0,7.4,5,9.8,8,9.8c2.3,0,4-0.6,6.5-2.9L215.2,506.9z"/>
	<path class="st0" d="M234.6,512.3c-0.8,0-1.9-0.5-2.5-1c-0.7-0.7-1-1.5-1.3-2.4c-2.1,1.4-4.7,3.4-6.3,3.4c-3.8,0-6.4-3.1-6.4-6.5
		c0-2.6,1.4-4.2,4.3-5.2c3.2-1.1,7-2.5,8.2-3.4v-1c0-3.8-1.8-6-4.5-6c-1.1,0-1.9,0.4-2.4,1.1c-0.7,0.7-1.2,1.9-1.6,3.5
		c-0.2,0.8-0.8,1.2-1.5,1.2c-1,0-2.3-1.1-2.3-2.3c0-0.8,0.7-1.4,1.7-2.1c1.5-1.1,4.9-3.1,7.9-3.7c1.6,0,3.2,0.5,4.3,1.4
		c1.9,1.5,2.4,3.7,2.4,6.5v9.9c0,2.4,1,3.2,1.9,3.2c0.6,0,1.4-0.3,1.9-0.6l0.5,1.4L234.6,512.3z M230.7,498.9
		c-1.1,0.6-3.7,1.7-4.8,2.2c-2.1,1-3.2,2-3.2,3.9c0,2.8,2.1,4.1,3.8,4.1c1.4-0.1,3.2-1,4.2-1.9V498.9z"/>
	<path class="st0" d="M240.5,511.6v-1.4c3.3-0.3,3.8-0.6,3.8-4.1v-25.1c0-3.6-0.3-3.8-3.7-4v-1.3c2.8-0.3,6-1.2,7.8-1.9v32.2
		c0,3.5,0.4,3.8,3.8,4.1v1.4H240.5z"/>
	<path class="st0" d="M267.1,511.6v-1.5c4.3-0.3,4.8-0.6,4.8-5.1v-21.2c0-4.5-0.4-4.8-4.8-5.1v-1.5h14v1.5c-4.3,0.3-4.8,0.6-4.8,5.1
		V505c0,4.6,0.4,4.8,4.8,5.1v1.5H267.1z"/>
	<path class="st0" d="M299.1,511.6v-1.4c3.1-0.3,3.5-0.7,3.5-4.4V497c0-3.7-1.3-6-4.8-6c-2.1,0-4.2,1.3-5.8,2.7v12.5
		c0,3.6,0.3,3.8,3.4,4.1v1.4h-11.5v-1.4c3.6-0.4,3.9-0.6,3.9-4.1v-11c0-3.4-0.3-3.5-3.2-4.1v-1.2c2.5-0.5,5-1.1,7.4-2.2v4.2
		c1.1-0.8,2.2-1.6,3.6-2.5c1.5-1,2.9-1.6,4.4-1.6c4.2,0,6.8,2.9,6.8,8.1v10.2c0,3.6,0.3,3.8,3.3,4.1v1.4H299.1z"/>
	<path class="st0" d="M316.7,488.5v-1.2c0-1.6,0.2-3.2,0.6-4.3s1.2-3.8,4.1-6.2c1.9-1.6,3.8-2.6,5.8-2.9c1.8,0.1,3.3,0.8,4.2,1.8
		c0.5,0.6,0.5,1.3,0.3,1.9c-0.2,0.4-0.5,0.8-1,1.3c-0.5,0.4-1,0.4-1.4-0.2c-1.1-1-2.5-2-4.3-2c-1.4,0-2.2,0.6-2.8,1.6
		c-0.7,1-1.3,3.6-1.2,8.1v2.1h6.3c0.3,0.5,0.1,1.7-0.5,2.1h-5.7v15.3c0,3.9,0.4,4.1,4.6,4.5v1.3h-12.5v-1.4c3.4-0.3,3.8-0.6,3.8-4.1
		v-15.6H313l-0.2-0.5l1.4-1.5H316.7z"/>
	<path class="st0" d="M351.6,499.7c0,8.5-6.3,12.6-11.5,12.6c-7.3,0-11.6-5.8-11.6-11.7c0-8.7,6.8-12.7,11.6-12.7
		C346.7,487.8,351.6,493.1,351.6,499.7z M333.5,498.9c0,6.7,2.9,11.7,7.3,11.7c3.3,0,6-2.4,6-9.7c0-6.2-2.5-11.2-7.1-11.2
		C336.3,489.6,333.5,492.9,333.5,498.9z"/>
	<path class="st0" d="M362.7,493.5c1.6-2.6,3.9-5.6,6.4-5.6c1.8,0,3.1,1.4,3.1,2.6c0,1.1-0.7,2.1-1.7,2.6c-0.6,0.3-1.1,0.2-1.4-0.1
		c-0.7-0.8-1.4-1.1-2.2-1.1c-1.4,0-3.1,1.6-4.2,4.6v9.7c0,3.5,0.3,3.8,4.3,4.1v1.4h-12.2v-1.4c3.3-0.3,3.7-0.6,3.7-4.1v-11
		c0-3.5-0.3-3.7-3.3-4.1v-1.2c2.6-0.4,4.9-1.1,7.5-2.2v5.8H362.7z"/>
	<path class="st0" d="M403.8,511.6v-1.4c3.1-0.3,3.7-0.5,3.7-4.3v-8.9c0-3.8-1.3-6.1-4.7-6.1c-1.9,0-3.9,1.1-5.9,2.8
		c0.1,0.6,0.2,1.2,0.2,2.2v10.3c0,3.3,0.5,3.7,3.4,4v1.4h-11.3v-1.4c3.3-0.3,3.8-0.6,3.8-4.1v-9.1c0-3.9-1.4-6.1-4.6-6.1
		c-2.1,0-4.2,1.4-5.8,2.8v12.5c0,3.4,0.4,3.8,3,4.1v1.4h-11.2v-1.4c3.5-0.3,4-0.6,4-4.1v-11c0-3.4-0.2-3.7-3.2-4.1v-1.2
		c2.3-0.4,5-1.1,7.4-2.2v4.3c1.1-0.7,2.3-1.7,3.9-2.7c1.4-0.8,2.6-1.4,4.3-1.4c2.5,0,4.8,1.6,5.9,4.3c1.5-1.2,3.1-2.2,4.4-3
		c1.1-0.7,2.5-1.4,4-1.4c4.1,0,6.7,2.9,6.7,8.1v10.2c0,3.5,0.4,3.8,3.4,4.1v1.4H403.8z"/>
	<path class="st0" d="M434.6,512.3c-0.8,0-1.9-0.5-2.5-1c-0.7-0.7-1-1.5-1.3-2.4c-2.1,1.4-4.7,3.4-6.3,3.4c-3.8,0-6.4-3.1-6.4-6.5
		c0-2.6,1.4-4.2,4.3-5.2c3.2-1.1,7-2.5,8.2-3.4v-1c0-3.8-1.8-6-4.5-6c-1.1,0-1.9,0.4-2.4,1.1c-0.7,0.7-1.2,1.9-1.6,3.5
		c-0.2,0.8-0.8,1.2-1.5,1.2c-1,0-2.3-1.1-2.3-2.3c0-0.8,0.7-1.4,1.7-2.1c1.5-1.1,4.9-3.1,7.9-3.7c1.6,0,3.2,0.5,4.3,1.4
		c1.9,1.5,2.4,3.7,2.4,6.5v9.9c0,2.4,1,3.2,1.9,3.2c0.6,0,1.4-0.3,1.9-0.6l0.5,1.4L434.6,512.3z M430.8,498.9
		c-1.1,0.6-3.7,1.7-4.8,2.2c-2.1,1-3.2,2-3.2,3.9c0,2.8,2.1,4.1,3.8,4.1c1.4-0.1,3.2-1,4.2-1.9V498.9z"/>
	<path class="st0" d="M450.6,511.6c-0.9,0.5-1.7,0.7-2.2,0.7c-3.3,0-5.2-2.1-5.2-6.3v-15.4h-3.7l-0.2-0.5l1.4-1.5h2.4v-3.9l3.4-3.5
		l0.7,0.1v7.3h6c0.5,0.5,0.3,1.7-0.3,2.1h-5.7v13.6c0,4.3,1.7,5.1,3.1,5.1c1.3,0,2.5-0.5,3.3-0.9l0.5,1.4L450.6,511.6z"/>
	<path class="st0" d="M456.6,511.6v-1.4c3.3-0.3,3.7-0.6,3.7-4.2v-10.9c0-3.3-0.2-3.5-3.3-4v-1.3c2.7-0.4,5.2-1.1,7.5-2.1V506
		c0,3.6,0.4,3.9,3.8,4.2v1.4H456.6z M459.4,480.5c0-1.6,1.3-2.8,2.7-2.8c1.5,0,2.6,1.2,2.6,2.8c0,1.4-1.2,2.7-2.7,2.7
		C460.6,483.2,459.4,482,459.4,480.5z"/>
	<path class="st0" d="M490.7,506.9c-2.3,3.1-5.9,5.4-9,5.4c-6.7,0-10.6-5.4-10.6-11.1c0-4.1,1.7-7.6,5.3-10.4c2.8-2.1,5.9-3,8-3
		c2.1,0,3.9,0.7,4.7,1.4c0.7,0.6,0.8,1.1,0.8,1.6c0,1.1-1.2,2.3-1.7,2.3c-0.3,0-0.5-0.2-1-0.6c-1.6-1.5-3.4-2.2-5.3-2.2
		c-3.5,0-6.6,2.9-6.6,8.5c0,7.4,5,9.8,8,9.8c2.3,0,4-0.6,6.5-2.9L490.7,506.9z"/>
	<path class="st0" d="M507.1,494.7c-1-3.1-2.9-5.2-5.5-5.2c-2,0-3.4,1.6-3.4,3.7c0,2.4,2.1,3.6,4.5,4.6c4,1.6,6.7,3.6,6.7,7.2
		c0,4.8-4.5,7.3-8.7,7.3c-2.7,0-5.1-1-6.1-1.8c-0.4-0.7-0.8-4.3-0.8-6.3l1.4-0.3c1,3.5,3.3,6.6,6.5,6.6c2,0,3.8-1.5,3.8-3.7
		c0-2.3-1.5-3.6-4.2-4.8c-3.2-1.5-6.6-3.2-6.6-7.3c0-3.7,3.2-6.8,8.1-6.8c2.2,0,3.6,0.5,4.7,0.9c0.4,1.2,1,4.3,1.2,5.7L507.1,494.7z
		"/>
</g>
<g>
	<path class="st0" d="M120.8,360.1v17.4c0,5.4,1,7.2,6.9,7.1c6.7,0,12.4-3.4,12.4-11.8c0-8.7-6.4-12.7-14.6-12.7H120.8z
		 M120.8,357.8h5c7.7,0,11.5-3.6,11.5-10.1c0-4.8-2-10.1-11.4-10.1c-2.6,0-3.7,0.2-4.4,0.5c-0.5,0.2-0.7,0.5-0.7,2.1V357.8z
		 M128.6,335.2c5.8,0,9,1,11.7,2.8c2.7,1.9,4.1,4.8,4.1,8.8c0,7-6.6,10.5-10.5,11.4v0.2c7.3,1,13.8,5.4,13.8,13.4
		c0,5.7-2.8,9.7-7.4,12.3c-4.1,2.2-9.2,3-15.3,3h-18.4v-1.8c6.7-0.5,7.4-1,7.4-9.7v-28.8c-0.1-8.7-0.6-9.3-6.9-9.7v-1.8H128.6z"/>
	<path class="st0" d="M175.6,362h4.6c3.3,0,5.8-0.4,8-2.2c3.4-2.7,4.6-6.6,4.6-10.6c0-8.4-6.1-11.7-12.1-11.7
		c-2.7,0-3.8,0.2-4.5,0.4c-0.5,0.2-0.7,0.6-0.7,2.2V362z M175.6,375.5c0,8.7,0.6,9.3,7.2,9.7v1.8h-21.3v-1.8c6.7-0.5,7.4-1,7.4-9.7
		v-28.8c0-8.7-0.6-9.3-7-9.7v-1.8h20.3c5.1,0,9.7,0.7,12.6,2.7c3.2,2,5.3,5.6,5.3,10.2c0,6.6-4.1,11.4-10.6,14
		c1.4,2.4,4.7,7.9,7.1,11.4c2.9,4.2,4.6,6.4,6.7,8.8c1.7,2,3.1,3.3,6,4l-0.2,1.5h-1.1c-9.2-0.2-12-3-15-7.4
		c-2.5-3.6-5.8-9.5-8.1-13.3c-1.3-2.1-2.5-2.9-5-2.9h-4.3V375.5z"/>
	<path class="st0" d="M243.3,336.6c-9.4,0-17.4,7.8-17.4,22.8c0,15.4,8.1,26.3,19.7,26.3c9.6,0,17.4-7.4,17.4-22.3
		C263,346.1,254.7,336.6,243.3,336.6 M270.8,360.4c0,16.6-11.6,27.9-26.9,27.9c-15.1,0-25.8-11.5-25.8-26.6
		c0-13.4,9.4-27.7,27.2-27.7C259.2,334,270.8,344.7,270.8,360.4"/>
	<path class="st0" d="M296.9,337l-2.5,0.3c-3.6,0.5-4.1,1.2-3,4.7l10.8,34h0.2l12.8-40.1h1.9l14.5,40h0.2
		c3.3-10.1,7.9-26.9,9.3-32.7c1.1-4.6,0.7-5.6-2.9-6l-2.3-0.3v-1.8h16.9v1.8c-5.3,0.6-5.8,1-8.5,8.2c-0.7,2-6.6,20.4-13.3,42.4h-2.2
		l-14.4-39.1l-0.2,0.2l-13,38.9h-2.2l-13.8-42.9c-2.2-6.6-3.4-7.2-7.9-7.7v-1.8h19.6V337z"/>
	<path class="st0" d="M411,387.7h-2.1l-34.7-42.1H374v20.4c0,8.4,0.3,12.7,0.6,15.2c0.4,2.8,2.6,3.9,7.8,4.2v1.8h-19.2v-1.8
		c4.4-0.2,6.5-1.4,6.9-4.2c0.3-2.5,0.6-6.8,0.6-15.2v-17.3c0-5.8-0.1-7-1.5-8.9c-1.5-1.9-3.7-2.5-7-2.7v-1.8h11.7l33.7,40.3h0.2
		v-19.1c0-8.4-0.3-12.7-0.6-15.2c-0.4-2.8-2.6-3.9-7.8-4.1v-1.8h19.2v1.8c-4.4,0.2-6.5,1.4-6.9,4.1c-0.3,2.5-0.6,6.8-0.6,15.2V387.7
		z"/>
</g>
<g id="Shield_Reverse">
	<g>
		<path class="st0" d="M214.6,247.9c0,0,0.6-1.3,2.9-1.3c2.9,0.1,5.8,0.9,8.1,1.3c1,0.2,2,0.2,2.7,0.1v28.2c0,0-0.4,0.3-1.4,0.4
			c-0.5,0.1-1.4,0.1-2.3,0c-0.6-0.1-1.3-0.2-2.1-0.4c-5.4-1.6-7.9,0.2-7.9,0.2l2.5-2.6l-2.5,2.5V247.9z M196.6,276.2V248v0.1
			c2.4,0.4,6.5-1.4,10.8-1.5c2.3-0.1,2.9,1.3,2.9,1.3l0,0v28.4l-0.5-0.2c0,0-2-1.4-7.4,0.1c-0.2,0-0.3,0.1-0.5,0.1
			C198.8,277,196.7,276.2,196.6,276.2 M178.2,145.4v86.8c0,28.6,7.2,48.5,22.5,62.5c15.3,13.9,38.1,20.9,60.3,26.1
			c22.9-5.4,45-12.1,60.3-26.1c15.4-14,22.5-33.9,22.5-62.5v-86.8C343.8,145.4,178.2,145.4,178.2,145.4z M286.6,161.5h4.1v-6
			c4.2,1,11.1-1.3,14.1-1.3c3.4,0,5.1,1.5,5.1,1.5s1.8-1.5,5.1-1.5c3,0,9.9,2.3,14.1,1.3v6h4.1v32.7h-19.3v2.4h-8.1v-2.4h-19.3
			v-32.7H286.6z M189,161.3h4.1v-5.9c4.2,1,11.3-1.1,14.3-1.1c3.3,0,5.1,1.5,5.1,1.5s1.8-1.5,5.1-1.5c3,0,9.8,2.3,14,1.3v5.9h4.4
			v32.8h-19.4v2.4h-7.9v-2.4l-19.5-0.1v-32.8H189z M235.8,282.9h-19.3v2.5l-8-0.1v-2.4h-17.9l-1.5-2.4v-30.3h4.2v-6
			c4.2,1,11.1-1.3,14.1-1.3c3.4,0,5.1,1.5,5.1,1.5s1.8-1.5,5.1-1.5c3,0,9.9,2.3,14.1,1.3v6.1l4.2-0.1v32.7H235.8z M331.4,282.8H314
			v2.4h-8v-2.4h-19.4v-32.7h4.2v-6c4.2,1,11.1-1.3,14.1-1.3c3.4,0,5.1,1.5,5.1,1.5s1.8-1.5,5.1-1.5c3,0,9.9,2.3,14.1,1.3v6h4.2v29.4
			L331.4,282.8z M341.8,233.9h-66.5V315l-14.4,3.8l-14.4-3.8v-81h-66.4v-26.5h66.5v-60.1h28.9v60.1h66.4V233.9z M307.3,187.7
			c0,0-2.4-1.7-7.8-0.1c-4.2,1.3-5.8,0-5.8,0v-28.2c2.4,0.4,6.6-1.3,10.8-1.4c2.3-0.1,2.9,1.3,2.9,1.3v28.4H307.3z M311.6,187.7
			v-28.4c0,0,0.6-1.3,2.9-1.3c4.2,0.1,8.4,1.8,10.8,1.4v28.2c0,0-1.6,1.2-5.8,0C314,186,311.6,187.7,311.6,187.7z M210.3,187.7
			c0,0-2.4-1.7-7.9-0.1c-4.3,1.3-5.8,0-5.8,0v-28.2c2.4,0.4,6.6-1.3,10.9-1.4c2.3-0.1,2.9,1.3,2.9,1.3v28.4H210.3z M214.6,187.9
			v-28.6c0,0,0.6-1.3,2.8-1.3c4.2,0.1,8.5,1.6,10.9,1.2v28.4c0,0-1.8,1-6-0.1C216.9,185.9,214.6,187.9,214.6,187.9z M312.1,247.8
			c0,0,0.6-1.3,2.9-1.3c2.9,0.1,5.8,0.9,8.1,1.3c1,0.2,2,0.2,2.7,0.1v28.2c0,0-0.4,0.3-1.4,0.4c-0.5,0.1-1.4,0.1-2.3,0
			c-0.6-0.1-1.4-0.2-2.1-0.4c-5.4-1.6-7.9,0.1-7.9,0.1V247.8z M307.9,276.2L307.9,276.2c-0.1-0.1-2.4-1.7-7.9-0.1
			c-0.2,0-0.3,0.1-0.5,0.1c-3.1,0.7-4.6,0.2-5.1,0l-0.2-0.1v-28.2h0.1c2.4,0.4,6.5-1.3,10.7-1.4c2.3-0.1,2.9,1.3,2.9,1.3v28.4H307.9
			z"/>
		<g>
			<path class="st0" d="M235.4,61c0.3,0.5,0.7,1.3,1.4,2.3c1.6,2.7,4.1,12.8,7.3,16.1c1.7-1.1,4.7-2.7,6.4-3.2
				c-0.4-0.6-2.2-3.8-4.2-6.4c-3.9-5.1-6.7-7.9-6.9-8.4C238.3,61.4,236.5,61.4,235.4,61"/>
			<path class="st0" d="M264.5,74.4c0.7-5.3-0.9-14-2-16.2c-1.4-0.3-2.6-0.8-3.8-1.4c-0.1,0.6-1.1,4.3-1.5,9.5
				c-0.2,2.8-0.1,7.1,0.4,8.1C259.2,74.2,262.1,74.2,264.5,74.4"/>
			<path class="st0" d="M289.4,105.6c0-15.9-12.3-28.3-28.2-28.3c-15.6,0-28.2,12.7-28.2,28.3c0,0.7,0.2,2.2,0.4,3.8
				c8.2-1.9,18.8-1.6,23.6,2.3c7.5-4.3,18.9-4.4,27.1,0c3.2-1.7,4.6-2,5-2.1C289.3,108.3,289.4,106.3,289.4,105.6 M255,95.9
				c-0.1,1.8-1.7,3.2-3.4,3.1c-1.8-0.1-3.2-1.7-3.1-3.5v-0.3c-0.3-0.4-1.8-0.9-4,0.4c-1.2,0.7-2.3,0.2-0.4-1.5c2-1.8,4-2.8,5.6-3
				h0.1c2.8-0.2,6.6,0.4,8.4,1.2c0.7,0.3,0,3.9-0.2,3.9c-0.6-0.1-1.9-0.6-2.9-0.4V95.9z M264.5,105.8c-0.6,1.7-6.5,2.2-7.6,0
				c-0.4-0.8-1-3.1-0.2-2.6c1.4,0.7,6.1,0.2,7,0c0.8-0.2,0.3-1.4,0.7-1.1C265,102.1,265,104.1,264.5,105.8 M278.4,96.4
				c-1.5-1.3-3.4-1.8-4.2-1.3v0.2c0.1,1.8-1.2,3.5-3,3.6c-1.8,0.2-3.5-1.1-3.6-3v-0.1c-1.1-0.4-3,0.3-3.3,0.2
				c-0.1-0.1-0.9-3.4,0.1-3.9c2.8-1.2,11.9-1.8,14.6,3.4C279.4,96.3,279.2,97.1,278.4,96.4"/>
			<path class="st0" d="M280.1,60.6c-3.3,2.8-8.4,9.6-9,15.2c1.6,0.6,5.6,2.6,6.3,3c4.1-4.1,3.2-8.5,4.8-11.9
				c0.7-1.5,1.4-2.6,1.8-3.3C282.5,62.8,281.2,61.9,280.1,60.6"/>
			<path class="st0" d="M299.9,71.5c-0.7,0.4-2.4,1.5-3,1.9c-3.9,2.9-12.4,6.9-14.3,9.1c1.6,1.4,3.9,3.9,4.9,6
				c0.9,0,3.7-2.2,9.1-8.7c1.8-2.1,3.6-3.1,6.9-5C302.1,73.9,300.9,72.8,299.9,71.5"/>
			<path class="st0" d="M231.5,95.2c-1.9-1.8-5.4-3.3-10.2-3c-9.7,0.7-16.1,0.1-19.8-0.4c-6.3-0.9-10.1,0-13.3,0
				c-9.5,0,0.3,0.8,1.4,1.3c4.5,1.8,13.6,4.1,20.7,3.6c3.4-0.2,9.3,1.9,10.3,2.2c2.6,0.9,7.2,2.4,9.7,2.4
				C230.5,100.1,231,96.7,231.5,95.2"/>
			<path class="st0" d="M239.4,83.2c-4.9-4-9.4-4.8-16.5-8.2c-1.7-0.7-4.4-2.6-4.5-2.7c-0.2-0.1-0.5-0.3-0.9-0.6
				c-0.4,1.4-1.3,3.1-2.1,4.2c1.1,1.5,9.1,10.7,19.3,13.5C235.8,87.5,237.6,85.2,239.4,83.2"/>
			<path class="st0" d="M341.9,90.3c-0.5-0.1-2.3-0.3-3.5-0.3c-1.6,0-11.7,0.1-14.4,0.5c-5.6,0.9-16.6,0.4-22.6,0.2
				c-4.5-0.2-9.6,1.6-11.2,2.4c0,0,1.8,4.4,1.9,7.3c1.9,0.3,3.8-2.1,9.2-2C307,98.6,321,97.9,328,95c5.2-2.1,9.7-3.1,13.3-3.9
				C342.4,91,344.3,90.7,341.9,90.3"/>
			<path class="st0" d="M207,51.8c-4.2,0.9-8.6,2-9.9,8.7"/>
			<path class="st0" d="M195.6,54.5c-0.5-0.3-0.8-0.5-0.9-0.6c-8.2-5.4-4.4,1.6-1.3,4.6C193.4,58.4,193.5,56,195.6,54.5"/>
			<path class="st0" d="M226.3,35.4c-1-1.4-2.5-3-4.6-4.9c-1.5-1.3-2.6-0.6-1.8,1.9c0.3,0.9,0.6,1.8,0.8,2.6
				C220.9,35,223.3,34.7,226.3,35.4"/>
			<path class="st0" d="M263.2,27.5c-0.3-2.4-0.6-4.5-0.9-5.6c-0.9-2.9-2-0.6-2.2,0.3c-0.2,1.3-0.5,2.9-0.8,4.9
				C259.3,27.1,261.9,28.5,263.2,27.5"/>
			<path class="st0" d="M297.4,37.5c0.2-0.5,0.4-1,0.6-1.5c1.8-3.7,0.8-4.6-1-2.9c-2.1,1.9-3.3,3.1-4.4,4.2c0,0,0.3,1.4,1.5,1.8
				c1,0.4,2.6,0,2.6,0S297.1,38.5,297.4,37.5"/>
			<path class="st0" d="M332,52.2c0.6-0.8,1.6-1.9,2-2.3c0.5-0.6,2.2-3.4-2.4-1.1c-0.2,0.1-0.9,0.5-1.6,0.8
				C330.1,49.7,331.8,50.8,332,52.2"/>
			<path class="st0" d="M215.4,61.9c0.4-0.4,1-0.3,1.7-0.1c4.8,1.6,11.6,0.5,14.8-4.6c0.4-0.7,1.4-0.9,2.1-0.6
				c3.3,1.4,10,2,18.3-6.5c0.6-0.6,1.7-0.5,2.3,0c7.2,5.9,14.8,6.2,22.5,1c0.5-0.3,1-0.7,1.6-0.5s0.9,0.7,1,1.3
				c2.4,11.4,14.2,10.3,17.8,9.8c0.4-0.1,0.9,0,1.3,0.3c0.4,0.3,0.6,0.7,0.7,1.2c0.4,2.6,3.3,7.8,8.4,10.5c4.4,2.2,9.1,2.1,14.1-0.5
				c0.5-0.2,1.1-0.2,1.6,0c6.4,3.4,12.2,3.7,15.8,0.5c2.6-2.2,3.7-5.8,2.6-8.8c-1.1-3.4-4.6-5.6-9.4-5.9c-0.8,0-1.5-0.6-1.6-1.5
				c-0.4-2.7-2-5-4.4-6.6c-3.8-2.3-9.3-2.6-14.8-0.7c-0.5,0.2-1,0.1-1.5-0.2s-0.7-0.7-0.8-1.3c-0.3-2.1-1.3-5-3.9-6.7
				c-2.8-1.7-7-1.7-12.2,0.1c-0.8,0.3-1.7-0.1-2.1-0.8c-3.3-6.5-8-10.7-13.6-12.1c-4.9-1.4-10.5-0.3-15.2,2.6
				c-0.6,0.4-1.4,0.4-2-0.1c-4.7-3.6-10.2-4.7-15.4-3.1c-4.9,1.6-8.8,5.4-10.7,11c-0.1,0.4-0.5,0.8-0.9,1c-0.4,0.2-0.9,0.2-1.4,0
				c-7.6-3-13.8-3-18,0.2c-3.6,2.7-4.7,7.1-4.5,8.4c0.1,0.8-0.4,1.7-1.3,1.9l-1.8,0.4c-4.2,0.9-8.6,2-9.9,8.7
				c-0.1,0.7-0.7,1.4-1.6,1.4c-7,1.2-11.7,3.9-12.8,7.8c-0.7,2.8,0.6,6.1,3.1,7.8c2.6,1.8,5.8,1.6,8.6-0.5c0.5-0.3,1-0.4,1.7-0.2
				c4.3,1.7,11.3,1.4,15.5-2.1c3-2.5,4.3-6.2,3.6-10.9C214.8,62.9,215,62.3,215.4,61.9 M331.5,62.4c4.4-1,9.5,2.2,8.1,8.1
				c-0.2,1-2.7,1-2.6,0c0.4-4.9-2.1-5.3-5.2-5.2C330.4,65.2,330.5,62.6,331.5,62.4 M312.9,53.7c4.2-2.4,12.9-2,15.6,5.8
				c0.4,1.4-1.3,3.6-2.4,1.6c-3.2-6-8.5-6-12.9-4.3C312.1,57.1,311.3,54.6,312.9,53.7 M294.7,44.7c3.9-1.4,10.6-2,12.3,4.6
				c0.5,1.9-1.8,2.7-2.2,1.5c-1.8-4.8-5.2-4.6-9.3-3.2C293.6,48.1,294,45,294.7,44.7 M262.7,37.3c2.8-4.6,17.6-8.9,25.2,4.2
				c0.8,1.5-0.3,2.3-1.1,2.8c-0.6,0.4-0.9-0.5-1.4-1.2c-6.5-10.2-18.1-7.5-21.2-2.8C263.5,41.3,261.8,38.7,262.7,37.3 M238.8,38.1
				c2.6-4.2,11.5-10.5,19.3-3.5c0.8,0.7-0.2,3.7-1.1,3c-7.2-5-12.9-0.9-15.9,2.6C239.8,41.9,238.2,39.1,238.8,38.1 M196.3,67
				c-3,0-5.4,0.1-7.5,2.4c-2.3,2.5-1.7,3.9-2.1,4.3c-0.6,0.6-2.2-0.4-2.2-1.7c0.1-5.9,7.1-8.1,11.3-7.6
				C197.2,64.5,197.7,67,196.3,67 M208.5,57.2c-4.4,0.5-5.8,2.6-6.5,5.1c-0.3,0.9-2.8,0.3-2.4-1.6c1.1-5.4,7.1-6.8,9.2-6.4
				C209.6,54.6,209.4,57.2,208.5,57.2 M212.3,51.3c0.9-4.8,5.6-11.8,16.3-9.1c1.4,0.3,0.5,3.7-0.8,3.1c-7.8-3.1-11.8,2.9-13.1,7.6
				C214.6,53.5,212,53.3,212.3,51.3"/>
		</g>
		<path class="st0" d="M302.4,129.5c-2.1-2.5-3.5-5.9-5.9-7.3c-1.2-0.6-2-2-0.4-2.8c1.6-0.4,2.9,0.9,4.8,3.5c0.5,0.6,1,1.3,1.6,2
			c2.7,3,3,6.3,5.5,6.3c3.2,0.2,6.4-0.6,8.6-1.9c6.8,3,19.4,1.7,22.6-0.4c6-4.1,2.3-12.8-3.7-15.9c-12.2-5.9-23.1-1-26.1,0.3
			c-2.7-1.9-7.3-2.7-13.1-2.6c-6.4,0.4-9.3,1.4-13.5,3.5c-7.6-4.5-18.2-4.3-25.8,0c-3-2.4-8.9-3.3-14.6-3.1c-4.8,0.2-9.3,0.9-12,2.7
			c-3.3-2.4-14.5-6.7-27.7-1.3c-2.8-0.9-8.7-4.2-16.7-1.6c-9.7,3.2-8.4,12.1-5.2,16.3c4.4,5.7,12.5,4.8,15.2,1.9
			c-0.6-1.6-1.9-2.8-3.1-4.4c-1-1.4-2.2-2.5-2.8-2.7c-2.2,0-1.5-2.4-0.6-2.6c2.5-0.9,5.6,3.5,8.7,7c1.6,1.9,2.4,4.9,4.5,4.9
			c4.6-0.1,6.6-1.5,8.3-2.3c2.7,1.6,15.4,4.1,25.1,0.1c1.4,0.9,6.7,3.8,13.5,0.3c-2.6-2.8-4-5.8-6.5-7.6c-1.7-0.8-1.4-2.4-0.5-2.7
			c1.8-0.5,3.6,1.4,5.2,3.6c0.9,1.3,2,2.7,2.9,3.8c1.9,2.2,3.4,4.8,5.2,4.8c3.9,0.1,5.9-0.9,7.5-2.2c1.2,0.8,2.5,1.5,5,1.9
			c1.8,0.3,4,0.5,7.5,0.5c4.5-0.1,7.8-0.4,10-1c1.4-0.4,2.4-1.2,3-1.6C288.8,128.6,295.2,132.6,302.4,129.5z M213.1,126.5
			c-3.7-1.6-6.4-9.8-7.5-11c-0.4-0.4,6.2-2.8,13.2-2.3c11.9,0.8,12.1,8.5,14.9,12C234.8,126.5,224.1,129.5,213.1,126.5z M266.5,127
			c-3.7-1.6-6.4-9.9-7.4-11c-0.4-0.4,6.4-2.8,13.4-2.3c11.8,1,11.9,8.4,14.7,12C288.3,127.1,277.4,130.1,266.5,127z M339.2,124.6
			c-1,2.2-8.4,5-19.3,2c-3.7-1.6-6.4-9.9-7.5-11c-0.4-0.4,6.3-2.8,13.2-2.3C337.4,114.2,340.4,122.1,339.2,124.6z"/>
	</g>
</g>
</svg>
